<?xml version="1.0" encoding="UTF-8" standalone="no"?>
<!DOCTYPE svg PUBLIC "-//W3C//DTD SVG 1.1//EN" "http://www.w3.org/Graphics/SVG/1.1/DTD/svg11.dtd">
<svg width="100%" height="100%" viewBox="0 0 700 188" version="1.1" xmlns="http://www.w3.org/2000/svg" xmlns:xlink="http://www.w3.org/1999/xlink" xml:space="preserve" xmlns:serif="http://www.serif.com/" style="fill-rule:evenodd;clip-rule:evenodd;stroke-linejoin:round;stroke-miterlimit:2;">
    <g id="Logo" transform="matrix(1.118211,0,0,1,-15.654952,-8)">
        <g transform="matrix(0.894286,0,0,1,65.868571,34)">
            <g transform="matrix(1,0,0,1,0,94.5)">
                <path d="M14,-29.25C14,-26 14.521,-22.958 15.562,-20.125C16.604,-17.292 18.083,-14.833 20,-12.75C21.917,-10.667 24.229,-9.021 26.938,-7.812C29.646,-6.604 32.708,-6 36.125,-6C39.458,-6 42.562,-6.604 45.438,-7.812C48.312,-9.021 50.792,-10.667 52.875,-12.75C54.958,-14.833 56.583,-17.292 57.75,-20.125C58.917,-22.958 59.5,-26 59.5,-29.25C59.5,-32.5 58.917,-35.542 57.75,-38.375C56.583,-41.208 54.958,-43.667 52.875,-45.75C50.792,-47.833 48.312,-49.479 45.438,-50.688C42.562,-51.896 39.458,-52.5 36.125,-52.5C32.708,-52.5 29.646,-51.896 26.938,-50.688C24.229,-49.479 21.917,-47.833 20,-45.75C18.083,-43.667 16.604,-41.208 15.562,-38.375C14.521,-35.542 14,-32.5 14,-29.25ZM67.375,0L59.125,0L59.125,-9.75L58.875,-9.75C57.542,-7.75 55.958,-6.042 54.125,-4.625C52.292,-3.208 50.375,-2.042 48.375,-1.125C46.375,-0.208 44.312,0.458 42.188,0.875C40.062,1.292 38.042,1.5 36.125,1.5C31.542,1.5 27.354,0.729 23.562,-0.813C19.771,-2.354 16.5,-4.5 13.75,-7.25C11,-10 8.854,-13.25 7.312,-17C5.771,-20.75 5,-24.833 5,-29.25C5,-33.667 5.771,-37.75 7.312,-41.5C8.854,-45.25 11,-48.5 13.75,-51.25C16.5,-54 19.771,-56.146 23.562,-57.688C27.354,-59.229 31.542,-60 36.125,-60C38.042,-60 40.062,-59.792 42.188,-59.375C44.312,-58.958 46.375,-58.292 48.375,-57.375C50.375,-56.458 52.292,-55.292 54.125,-53.875C55.958,-52.458 57.542,-50.75 58.875,-48.75L59.125,-48.75L59.125,-94.5L67.375,-94.5L67.375,0Z"/>
                <path d="M130.875,-33.75C130.875,-39.333 129.208,-43.854 125.875,-47.312C122.542,-50.771 117.875,-52.5 111.875,-52.5C109.208,-52.5 106.625,-51.979 104.125,-50.938C101.625,-49.896 99.438,-48.5 97.562,-46.75C95.688,-45 94.188,-43 93.062,-40.75C91.938,-38.5 91.375,-36.167 91.375,-33.75L130.875,-33.75ZM91.125,-27C91.375,-24.083 92.083,-21.333 93.25,-18.75C94.417,-16.167 95.958,-13.938 97.875,-12.062C99.792,-10.188 102,-8.708 104.5,-7.625C107,-6.542 109.708,-6 112.625,-6C117.042,-6 120.854,-7.021 124.062,-9.062C127.271,-11.104 129.708,-13.458 131.375,-16.125L137.75,-10.875C134.25,-6.458 130.396,-3.292 126.188,-1.375C121.979,0.542 117.458,1.5 112.625,1.5C108.292,1.5 104.271,0.729 100.562,-0.813C96.854,-2.354 93.667,-4.5 91,-7.25C88.333,-10 86.229,-13.25 84.688,-17C83.146,-20.75 82.375,-24.833 82.375,-29.25C82.375,-33.667 83.125,-37.75 84.625,-41.5C86.125,-45.25 88.208,-48.5 90.875,-51.25C93.542,-54 96.667,-56.146 100.25,-57.688C103.833,-59.229 107.708,-60 111.875,-60C116.292,-60 120.25,-59.208 123.75,-57.625C127.25,-56.042 130.188,-53.938 132.562,-51.313C134.938,-48.688 136.75,-45.604 138,-42.062C139.25,-38.521 139.875,-34.75 139.875,-30.75L139.875,-27L91.125,-27Z"/>
                <path d="M180.625,0L171.375,0L147.625,-58.5L157.5,-58.5L176.125,-9.25L176.375,-9.25L195,-58.5L204.375,-58.5L180.625,0Z"/>
            </g>
            <g transform="matrix(1,0,0,1,206.125,94.5)">
                <path d="M47.75,-41.125C46.833,-42.458 45.542,-43.563 43.875,-44.438C42.208,-45.312 40.417,-45.75 38.5,-45.75C33.75,-45.75 30.063,-44.333 27.438,-41.5C24.812,-38.667 23.5,-34.958 23.5,-30.375C23.5,-25.792 24.812,-22.083 27.438,-19.25C30.063,-16.417 33.75,-15 38.5,-15C40.583,-15 42.375,-15.458 43.875,-16.375C45.375,-17.292 46.667,-18.375 47.75,-19.625L60.125,-6.625C57.208,-3.625 53.771,-1.521 49.812,-0.312C45.854,0.896 42.083,1.5 38.5,1.5C33.833,1.5 29.438,0.75 25.312,-0.75C21.187,-2.25 17.604,-4.396 14.562,-7.188C11.521,-9.979 9.125,-13.333 7.375,-17.25C5.625,-21.167 4.75,-25.542 4.75,-30.375C4.75,-35.208 5.625,-39.583 7.375,-43.5C9.125,-47.417 11.521,-50.771 14.562,-53.562C17.604,-56.354 21.187,-58.5 25.312,-60C29.438,-61.5 33.833,-62.25 38.5,-62.25C42.083,-62.25 45.854,-61.646 49.812,-60.438C53.771,-59.229 57.208,-57.125 60.125,-54.125L47.75,-41.125Z"/>
                <path d="M105,-7.625L104.75,-7.625C102.667,-4.375 99.896,-2.042 96.438,-0.625C92.979,0.792 89.333,1.5 85.5,1.5C82.667,1.5 79.938,1.104 77.312,0.312C74.688,-0.479 72.375,-1.667 70.375,-3.25C68.375,-4.833 66.792,-6.792 65.625,-9.125C64.458,-11.458 63.875,-14.167 63.875,-17.25C63.875,-20.75 64.521,-23.708 65.812,-26.125C67.104,-28.542 68.854,-30.542 71.062,-32.125C73.271,-33.708 75.792,-34.938 78.625,-35.813C81.458,-36.688 84.396,-37.333 87.438,-37.75C90.479,-38.167 93.521,-38.417 96.562,-38.5C99.604,-38.583 102.417,-38.625 105,-38.625C105,-41.958 103.812,-44.604 101.438,-46.562C99.062,-48.521 96.25,-49.5 93,-49.5C89.917,-49.5 87.104,-48.854 84.562,-47.562C82.021,-46.271 79.75,-44.5 77.75,-42.25L67.75,-52.5C71.25,-55.75 75.333,-58.188 80,-59.813C84.667,-61.438 89.5,-62.25 94.5,-62.25C100,-62.25 104.521,-61.562 108.062,-60.188C111.604,-58.812 114.438,-56.792 116.562,-54.125C118.688,-51.458 120.167,-48.188 121,-44.312C121.833,-40.437 122.25,-35.958 122.25,-30.875L122.25,0L105,0L105,-7.625ZM100.375,-26.625C98.958,-26.625 97.188,-26.562 95.062,-26.438C92.938,-26.312 90.896,-25.958 88.938,-25.375C86.979,-24.792 85.312,-23.917 83.938,-22.75C82.562,-21.583 81.875,-19.958 81.875,-17.875C81.875,-15.625 82.833,-13.958 84.75,-12.875C86.667,-11.792 88.667,-11.25 90.75,-11.25C92.583,-11.25 94.354,-11.5 96.062,-12C97.771,-12.5 99.292,-13.208 100.625,-14.125C101.958,-15.042 103.021,-16.208 103.812,-17.625C104.604,-19.042 105,-20.708 105,-22.625L105,-26.625L100.375,-26.625Z"/>
                <path d="M135.75,-60.75L153,-60.75L153,-52.75L153.25,-52.75C154,-53.833 154.979,-54.938 156.188,-56.062C157.396,-57.188 158.812,-58.208 160.438,-59.125C162.062,-60.042 163.833,-60.792 165.75,-61.375C167.667,-61.958 169.708,-62.25 171.875,-62.25C176.375,-62.25 180.458,-61.479 184.125,-59.938C187.792,-58.396 190.938,-56.229 193.562,-53.438C196.188,-50.646 198.208,-47.333 199.625,-43.5C201.042,-39.667 201.75,-35.458 201.75,-30.875C201.75,-26.625 201.104,-22.562 199.812,-18.688C198.521,-14.813 196.688,-11.375 194.312,-8.375C191.938,-5.375 189.042,-2.979 185.625,-1.188C182.208,0.604 178.333,1.5 174,1.5C170.083,1.5 166.438,0.896 163.062,-0.312C159.688,-1.521 156.917,-3.583 154.75,-6.5L154.5,-6.5L154.5,28.5L135.75,28.5L135.75,-60.75ZM153,-30.375C153,-25.792 154.312,-22.083 156.938,-19.25C159.562,-16.417 163.25,-15 168,-15C172.75,-15 176.438,-16.417 179.062,-19.25C181.688,-22.083 183,-25.792 183,-30.375C183,-34.958 181.688,-38.667 179.062,-41.5C176.438,-44.333 172.75,-45.75 168,-45.75C163.25,-45.75 159.562,-44.333 156.938,-41.5C154.312,-38.667 153,-34.958 153,-30.375Z"/>
            </g>
            <g transform="matrix(1,0,0,1,412.25,94.5)">
                <path d="M24.125,-6C24.125,-4.25 23.5,-2.688 22.25,-1.312C21,0.062 19.375,0.75 17.375,0.75C15.375,0.75 13.75,0.062 12.5,-1.312C11.25,-2.688 10.625,-4.25 10.625,-6C10.625,-7.75 11.25,-9.313 12.5,-10.688C13.75,-12.063 15.375,-12.75 17.375,-12.75C19.375,-12.75 21,-12.063 22.25,-10.688C23.5,-9.313 24.125,-7.75 24.125,-6Z"/>
            </g>
            <g transform="matrix(1,0,0,1,447,94.5)">
                <path d="M47.75,-11.125C46.833,-9.542 45.667,-8 44.25,-6.5C42.833,-5 41.167,-3.646 39.25,-2.438C37.333,-1.229 35.188,-0.271 32.812,0.438C30.438,1.146 27.833,1.5 25,1.5C18.833,1.5 13.958,-0.458 10.375,-4.375C6.792,-8.292 5,-13.625 5,-20.375C5,-26.375 5.958,-32.021 7.875,-37.312C9.792,-42.604 12.396,-47.229 15.688,-51.188C18.979,-55.146 22.854,-58.271 27.312,-60.562C31.771,-62.854 36.542,-64 41.625,-64C44.792,-64 47.375,-63.75 49.375,-63.25C51.375,-62.75 52.875,-62.042 53.875,-61.125C53.958,-60.208 53.896,-59.188 53.688,-58.062C53.479,-56.938 53.146,-55.833 52.688,-54.75C52.229,-53.667 51.646,-52.667 50.938,-51.75C50.229,-50.833 49.5,-50.208 48.75,-49.875L40.25,-58.625C37.417,-58.542 34.604,-57.667 31.812,-56C29.021,-54.333 26.521,-51.958 24.312,-48.875C22.104,-45.792 20.312,-42.062 18.938,-37.688C17.562,-33.312 16.917,-28.375 17,-22.875C16.917,-17.125 18.062,-12.917 20.438,-10.25C22.812,-7.583 26.042,-6.25 30.125,-6.25C31.875,-6.25 33.521,-6.5 35.062,-7C36.604,-7.5 38.042,-8.125 39.375,-8.875C40.708,-9.625 41.917,-10.417 43,-11.25C44.083,-12.083 45.042,-12.833 45.875,-13.5L47.75,-11.125Z"/>
                <path d="M75.25,-85.25L66.375,-86.375L66.375,-89.5C67.542,-90 68.896,-90.5 70.438,-91C71.979,-91.5 73.604,-91.979 75.312,-92.438C77.021,-92.896 78.708,-93.271 80.375,-93.562C82.042,-93.854 83.542,-94 84.875,-94L87.375,-92.625L70.125,-7L79.25,-7L79.25,-3.75C77.583,-2.417 75.562,-1.333 73.188,-0.5C70.812,0.333 68.5,0.75 66.25,0.75C63.833,0.75 62.062,0.208 60.938,-0.875C59.812,-1.958 59.25,-3.208 59.25,-4.625C59.25,-6.292 59.375,-7.917 59.625,-9.5C59.875,-11.083 60.208,-12.833 60.625,-14.75L75.25,-85.25Z"/>
                <path d="M96.875,-56.375L96.875,-59.5C98.125,-60 99.542,-60.521 101.125,-61.062C102.708,-61.604 104.333,-62.083 106,-62.5C107.667,-62.917 109.25,-63.271 110.75,-63.563C112.25,-63.854 113.583,-64 114.75,-64L117,-62.5L105.25,-7L114.5,-7L114.5,-3.75C112.75,-2.417 110.708,-1.333 108.375,-0.5C106.042,0.333 103.75,0.75 101.5,0.75C99.083,0.75 97.354,0.208 96.312,-0.875C95.271,-1.958 94.75,-3.208 94.75,-4.625C94.75,-6.292 94.875,-7.917 95.125,-9.5C95.375,-11.083 95.708,-12.833 96.125,-14.75L104.875,-55.125L96.875,-56.375ZM107,-84.125C107,-86.292 107.667,-88 109,-89.25C110.333,-90.5 112.083,-91.125 114.25,-91.125C116.583,-91.125 118.417,-90.5 119.75,-89.25C121.083,-88 121.75,-86.292 121.75,-84.125C121.75,-82.042 121.083,-80.417 119.75,-79.25C118.417,-78.083 116.583,-77.5 114.25,-77.5C112.083,-77.5 110.333,-78.083 109,-79.25C107.667,-80.417 107,-82.042 107,-84.125Z"/>
            </g>
        </g>
    </g>
</svg>
